<svg xmlns="http://www.w3.org/2000/svg" xmlns:xlink="http://www.w3.org/1999/xlink" width="104" height="65" viewBox="0 0 104 65">
  <defs>
    <polygon id="reistijdillustratie-a" points="21.58 .499 21.58 21.589 .489 21.589 .489 .499"/>
    <polygon id="reistijdillustratie-c" points="21.197 21.589 .108 21.589 .108 .499 21.197 .499 21.197 21.589"/>
    <polygon id="reistijdillustratie-e" points="0 60.956 54.991 60.956 54.991 0 0 0"/>
  </defs>
  <g fill="none" fill-rule="evenodd">
    <g transform="translate(3 12)">
      <polygon fill="#53241B" points="6.831 30.835 8.273 30.835 8.273 9.334 6.831 9.334"/>
      <g transform="translate(0 .164)">
        <path fill="#53241B" d="M8.75727891,49.6598299 L6.34707483,49.6598299 L6.34707483,29.3645918 C6.34707483,28.6989456 6.88653061,28.1591497 7.55217687,28.1591497 C8.21782313,28.1591497 8.75727891,28.6989456 8.75727891,29.3645918 L8.75727891,49.6598299 Z"/>
        <path fill="#00A8E8" d="M14.7913605,7.57214286 C14.7913605,11.6568367 11.4804762,14.9680612 7.39578231,14.9680612 C3.31108844,14.9680612 0.000204081633,11.6568367 0.000204081633,7.57214286 C0.000204081633,3.48778912 3.31108844,0.176564626 7.39578231,0.176564626 C11.4804762,0.176564626 14.7913605,3.48778912 14.7913605,7.57214286"/>
        <path fill="#FFF" d="M7.39571429,1.76857143 C4.19571429,1.76857143 1.59231293,4.37197279 1.59231293,7.57197279 C1.59231293,10.7723129 4.19571429,13.3757143 7.39571429,13.3757143 C10.5953741,13.3757143 13.1991156,10.7723129 13.1991156,7.57197279 C13.1991156,4.37197279 10.5953741,1.76857143 7.39571429,1.76857143 M7.39571429,13.9277551 C3.89129252,13.9277551 1.04027211,11.0767347 1.04027211,7.57197279 C1.04027211,4.06789116 3.89129252,1.21653061 7.39571429,1.21653061 C10.9001361,1.21653061 13.7511565,4.06789116 13.7511565,7.57197279 C13.7511565,11.0767347 10.9001361,13.9277551 7.39571429,13.9277551"/>
        <path fill="#FFF" d="M4.47234694 6.9197619C3.80261905 6.9197619 3.25806122 7.46465986 3.25806122 8.13438776 3.25806122 8.80445578 3.80261905 9.34935374 4.47234694 9.34935374 5.14207483 9.34935374 5.68697279 8.80445578 5.68697279 8.13438776 5.68697279 7.46465986 5.14207483 6.9197619 4.47234694 6.9197619M4.47234694 9.71704082C3.6002381 9.71704082 2.89003401 9.00717687 2.89003401 8.13438776 2.89003401 7.26159864 3.6002381 6.55173469 4.47234694 6.55173469 5.34513605 6.55173469 6.055 7.26159864 6.055 8.13438776 6.055 9.00717687 5.34513605 9.71704082 4.47234694 9.71704082M10.0912245 6.9197619C9.42115646 6.9197619 8.87693878 7.46465986 8.87693878 8.13438776 8.87693878 8.80445578 9.42115646 9.34935374 10.0912245 9.34935374 10.7609524 9.34935374 11.3058503 8.80445578 11.3058503 8.13438776 11.3058503 7.46465986 10.7609524 6.9197619 10.0912245 6.9197619M10.0912245 9.71704082C9.21877551 9.71704082 8.50891156 9.00717687 8.50891156 8.13438776 8.50891156 7.26159864 9.21877551 6.55173469 10.0912245 6.55173469 10.9636735 6.55173469 11.6738776 7.26159864 11.6738776 8.13438776 11.6738776 9.00717687 10.9636735 9.71704082 10.0912245 9.71704082"/>
        <path fill="#FFF" d="M7.51761905,8.01391156 L9.75741497,8.01391156 L8.51897959,5.87071429 L6.01965986,5.87071429 L7.51761905,8.01391156 Z M10.0757823,8.38193878 L7.42170068,8.38193878 C7.3614966,8.38193878 7.30503401,8.35268707 7.27034014,8.30336735 L5.5152381,5.79214286 C5.47612245,5.73602041 5.47136054,5.66255102 5.50333333,5.6020068 C5.53496599,5.54078231 5.59755102,5.50268707 5.66659864,5.50268707 L8.62578231,5.50268707 C8.69108844,5.50268707 8.75197279,5.53772109 8.78496599,5.59486395 L10.2353061,8.10608844 C10.2682993,8.16289116 10.2682993,8.23295918 10.2353061,8.29010204 C10.2026531,8.34690476 10.1417687,8.38193878 10.0757823,8.38193878 L10.0757823,8.38193878 Z"/>
        <polygon fill="#FFF" points="7.808 8.269 7.468 8.127 8.854 4.79 9.194 4.931"/>
        <path fill="#FFF" d="M4.50489796,8.3002381 C4.47870748,8.3002381 4.45217687,8.29445578 4.4270068,8.28289116 C4.33482993,8.23969388 4.29503401,8.13017007 4.33823129,8.0379932 L6.11646259,4.24207483 C6.14707483,4.17744898 6.21204082,4.13595238 6.28346939,4.13595238 L7.01442177,4.13595238 C7.11612245,4.13595238 7.19843537,4.21826531 7.19843537,4.31996599 C7.19843537,4.42166667 7.11612245,4.50397959 7.01442177,4.50397959 L6.40047619,4.50397959 L4.67122449,8.19411565 C4.63993197,8.26112245 4.57360544,8.3002381 4.50489796,8.3002381"/>
      </g>
    </g>
    <rect width="104" height="4" y="61" fill="#000"/>
    <g transform="translate(35)">
      <path fill="#53241B" d="M14.1279579,38.456 L3.57052804,38.456 C3.40501402,38.456 3.27085514,38.3218411 3.27085514,38.1563271 L3.27085514,34.879972 C3.27085514,34.7144579 3.40501402,34.5802991 3.57052804,34.5802991 L14.1279579,34.5802991 C14.293472,34.5802991 14.4276308,34.7144579 14.4276308,34.879972 L14.4276308,38.1563271 C14.4276308,38.3218411 14.293472,38.456 14.1279579,38.456 Z"/>
      <path fill="#694039" d="M9.47315888,35.4476542 L8.43381308,35.4476542 C8.29914019,35.4476542 8.19016822,35.3386822 8.19016822,35.2040093 L8.19016822,34.5758785 C8.19016822,34.4412056 8.29914019,34.3322336 8.43381308,34.3322336 L9.47315888,34.3322336 C9.60783178,34.3322336 9.71680374,34.4412056 9.71680374,34.5758785 L9.71680374,35.2040093 C9.71680374,35.3386822 9.60783178,35.4476542 9.47315888,35.4476542"/>
      <polygon fill="#6DCBF7" points="36.895 33.834 36.163 30.084 37.217 29.878 37.95 33.628"/>
      <path fill="#694039" d="M25.157257,19.7768692 L29.0509486,26.6924766 L36.5232383,28.1342991 L37.285014,25.8597664 L30.8417897,24.0591589 L27.9828178,18.3468692 C27.521743,17.3676636 26.2372103,17.1291589 25.4548738,17.8770561 C24.9387991,18.371028 24.8169766,19.1492523 25.157257,19.7768692"/>
      <path fill="#53241B" d="M33.0025701,47.8576589 L28.297243,47.8576589 L28.3913084,46.4430794 L33.0025701,46.4430794 C33.3932243,46.4430794 33.7098598,46.759715 33.7098598,47.1503692 C33.7098598,47.5410234 33.3932243,47.8576589 33.0025701,47.8576589"/>
      <path fill="#E7F1F5" d="M20.7805935,40.237486 C20.823771,40.237486 20.8674626,40.2313178 20.9111542,40.2179533 C21.1491449,40.1454766 21.2838178,39.8946355 21.2113411,39.6571589 L19.7726028,34.9173925 C19.7001262,34.6794019 19.4508271,34.544215 19.2118084,34.6172056 C18.9733037,34.6896822 18.8396589,34.9405234 18.9116215,35.178514 L20.3498458,39.9177664 C20.4089579,40.1120654 20.5873224,40.237486 20.7805935,40.237486"/>
      <g transform="translate(33.411 39.367)">
        <mask id="reistijdillustratie-b" fill="#fff">
          <use xlink:href="#reistijdillustratie-a"/>
        </mask>
        <path fill="#53241B" d="M2.02091589,11.0437944 C2.02091589,6.06552336 6.05904673,2.02996262 11.0368037,2.02996262 C16.0130187,2.02996262 20.0496075,6.06552336 20.0496075,11.0437944 C20.0496075,16.0210374 16.0130187,20.0576262 11.0368037,20.0576262 C6.05904673,20.0576262 2.02091589,16.0210374 2.02091589,11.0437944 M0.489140187,11.0437944 C0.489140187,16.8671121 5.21245794,21.5888879 11.0368037,21.5888879 C16.8585794,21.5888879 21.5803551,16.8671121 21.5803551,11.0437944 C21.5803551,5.2194486 16.8585794,0.499214953 11.0368037,0.499214953 C5.21245794,0.499214953 0.489140187,5.2194486 0.489140187,11.0437944" mask="url(#reistijdillustratie-b)"/>
      </g>
      <g transform="translate(.514 39.367)">
        <mask id="reistijdillustratie-d" fill="#fff">
          <use xlink:href="#reistijdillustratie-c"/>
        </mask>
        <path fill="#53241B" d="M1.63786916,11.0437944 C1.63786916,6.06552336 5.67548598,2.02996262 10.653243,2.02996262 C15.631,2.02996262 19.6670748,6.06552336 19.6670748,11.0437944 C19.6670748,16.0210374 15.631,20.0576262 10.653243,20.0576262 C5.67548598,20.0576262 1.63786916,16.0210374 1.63786916,11.0437944 M0.108149533,11.0437944 C0.108149533,16.8671121 4.82838318,21.5888879 10.653243,21.5888879 C16.4755327,21.5888879 21.1967944,16.8671121 21.1967944,11.0437944 C21.1967944,5.2194486 16.4755327,0.499214953 10.653243,0.499214953 C4.82838318,0.499214953 0.108149533,5.2194486 0.108149533,11.0437944" mask="url(#reistijdillustratie-d)"/>
      </g>
      <path fill="#53241B" d="M21.3934579 33.3554439L29.5535047 35.7055374 28.378972 46.7965187 29.9708879 46.8849299 33.1994393 35.2449766C33.4929439 34.1876402 32.9696729 33.0747897 31.9678505 32.6265654L26.2971963 30.0883411 16.5807009 29.9953037 17.9449065 32.2945093 21.3934579 33.3554439zM11.1673131 39.8660561L7.97422897 40.359 6.21114486 41.101757 10.2600701 46.2625047C10.9853505 47.1867103 12.0940888 47.7264299 13.2681075 47.7264299L21.1850234 47.7264299 20.6931075 45.887785 18.4324533 42.7707757 14.683715 40.467972 11.1673131 39.8660561z"/>
      <path fill="#F97D00" d="M37.9063084,35.5613551 C38.2383645,35.5613551 38.527757,35.7880374 38.6058879,36.1108411 C38.6141121,36.1442523 39.4314019,39.4833178 40.837757,43.946028 C41.4108879,45.7646262 42.982243,47.5672897 44.1285047,48.8842056 C44.4163551,49.2136916 44.6769626,49.5133645 44.8907944,49.7765421 C45.1416355,50.0849533 45.0953738,50.5383178 44.7869626,50.7891589 C44.4785514,51.041028 44.0251869,50.9937383 43.7743458,50.6853271 C43.5687383,50.4334579 43.3184112,50.1466355 43.0428972,49.83 C41.8133645,48.4179907 40.1278972,46.4842523 39.4642991,44.3793458 C38.9528505,42.7560748 38.5179907,41.278271 38.1715421,40.0513084 L25.8109346,52.1847196 C25.6742056,52.3188785 25.493271,52.3913551 25.3061682,52.3913551 C25.2537383,52.3913551 25.2002804,52.3851869 25.1478505,52.3738785 C24.9093458,52.3199065 24.7145327,52.1487383 24.6302336,51.918972 L18.9888785,36.5287383 C18.9081776,36.3082243 18.9400467,36.0620093 19.0742056,35.8692523 C19.2093925,35.6764953 19.4293925,35.5613551 19.6648131,35.5613551 L20.6959346,37.0011215 L25.5986449,50.3753738 L37.7315421,38.4645327 C37.563972,37.8430841 37.4339252,37.346028 37.345514,37.0011215"/>
      <path fill="#F97D00" d="M25.1276495,52.3036121 C25.4031636,52.3036121 25.6385841,52.0944065 25.6647991,51.8142664 C25.6925561,51.5176776 25.4746121,51.253986 25.1780234,51.226229 L12.0140047,49.8980047 L19.9350327,36.5802944 C20.1010607,36.3325374 20.0332103,35.9968832 19.7849393,35.8318832 C19.5382103,35.6679112 19.2020421,35.7331916 19.036014,35.9819766 L10.6143318,50.0516963 C10.5089579,50.2095 10.4945654,50.4120234 10.5762944,50.5831916 C10.6585374,50.7548738 10.8240514,50.8710421 11.0132103,50.8885187 L25.0762477,52.3015561 C25.0937243,52.3030981 25.1106869,52.3036121 25.1276495,52.3036121"/>
      <path fill="#F97D00" d="M21.8628084,50.881271 C21.603229,50.881271 21.3924813,50.6705234 21.3924813,50.4109439 C21.3924813,44.7721589 16.8053785,40.1850561 11.1660794,40.1850561 C5.52780841,40.1850561 0.940191589,44.7721589 0.940191589,50.4109439 C0.940191589,50.6705234 0.729957944,50.881271 0.470378505,50.881271 C0.210285047,50.881271 5.14018692e-05,50.6705234 5.14018692e-05,50.4109439 C5.14018692e-05,44.253514 5.00916355,39.2444019 11.1660794,39.2444019 C17.3235093,39.2444019 22.3331355,44.253514 22.3331355,50.4109439 C22.3331355,50.6705234 22.1223879,50.881271 21.8628084,50.881271"/>
      <path fill="#00AAE6" d="M20.695729,37.0012757 L20.2351682,35.8627243 C20.2351682,35.8627243 20.1405888,35.5342664 19.6646075,35.5615093 L19.4266168,36.2811355 L20.695729,37.1338925 L20.695729,37.0012757 Z"/>
      <path fill="#F97D00" d="M38.1979626 37.9801215C37.8736168 37.9842336 37.5816542 37.7575514 37.5158598 37.4280654L36.8203925 33.9707757C36.7453458 33.5986262 36.9869346 33.236243 37.3590841 33.1611963 37.7327757 33.0866636 38.0941308 33.3277383 38.1686636 33.6998879L38.8636168 37.1566636C38.9386636 37.5293271 38.6975888 37.8917103 38.3254393 37.966757 38.2827757 37.9749813 38.2401121 37.9796075 38.1979626 37.9801215M41.8126963 35.8106028L40.4788178 35.8106028C39.6702664 35.8106028 39.0148925 35.154715 39.0148925 34.3461636 39.0148925 33.5376121 39.6702664 32.8817243 40.4788178 32.8817243L41.8126963 32.8817243 41.8126963 35.8106028z"/>
      <path fill="#F97D00" d="M39.9684486 34.3749486C39.7823738 34.1883598 39.4801308 34.1883598 39.2940561 34.3749486L37.8753645 35.8599486C38.0455047 36.1534533 38.1889159 36.3950421 38.3045701 36.7132196L39.9684486 35.0493411C40.1545234 34.8627523 40.1545234 34.5610234 39.9684486 34.3749486M17.1683785 41.0911168C17.0470701 41.0911168 16.9257617 41.0443411 16.8342664 40.9513037L15.4808551 39.582986C15.3610888 39.4591075 15.1996869 39.390743 15.0336589 39.390743L5.32538785 39.390743C5.06580841 39.390743 4.85506075 39.1799953 4.85506075 38.9204159 4.85506075 38.6608364 5.06580841 38.4500888 5.32538785 38.4500888L15.0336589 38.4500888C15.4530981 38.4500888 15.861743 38.6238271 16.1531916 38.9260701L17.5024907 40.2902757C17.6854813 40.4748084 17.6834252 40.7724252 17.4988925 40.9554159 17.4073972 41.0458832 17.2876308 41.0911168 17.1683785 41.0911168M33.5924065 50.881271C33.3328271 50.881271 33.1220794 50.6705234 33.1220794 50.4109439 33.1220794 44.1671589 38.2021262 39.0871121 44.4459112 39.0871121 44.7054907 39.0871121 44.9157243 39.2978598 44.9157243 39.5574393 44.9157243 39.8170187 44.7054907 40.0277664 44.4459112 40.0277664 38.720771 40.0277664 34.0622196 44.6858037 34.0622196 50.4109439 34.0622196 50.6705234 33.851986 50.881271 33.5924065 50.881271"/>
      <mask id="reistijdillustratie-f" fill="#fff">
        <use xlink:href="#reistijdillustratie-e"/>
      </mask>
      <polygon fill="#F97D00" points="19.715 36.732 38.357 36.732 38.357 35.574 19.715 35.574" mask="url(#reistijdillustratie-f)"/>
      <path fill="#53241B" d="M16.1338131 34.6967243L16.5547944 30.6945748M26.1064953 56.4780093L21.3872897 55.5013738 21.6921028 54.0292243 26.4113084 55.0058598C26.8178972 55.0901589 27.0795327 55.4874953 26.9952336 55.8940841 26.9104206 56.3006729 26.5130841 56.5623084 26.1064953 56.4780093M25.223 15.6802944L23.6166916 15.6802944C23.6130935 16.137771 23.3689346 16.5721168 22.7865514 16.8178178 19.1915047 18.3352009 18.9684206 22.1420234 18.3510841 25.5592196 18.266785 26.0238925 18.0354766 26.3287056 17.7383738 26.5070701L17.165757 32.7745 27.4666916 32.7745 28.6987944 19.2825374C28.8416916 17.3570234 27.2122523 15.6802944 25.223 15.6802944" mask="url(#reistijdillustratie-f)"/>
      <path fill="#FFF" d="M23.9590794,15.6802944 L23.2728645,15.6802944 C23.2219766,16.3361822 22.9623972,16.9941262 22.4319299,17.566743 C20.7947804,19.3349673 19.463986,20.5264626 18.9062757,22.9197336 C18.3115561,25.4708084 17.7373972,27.8774439 17.6793131,30.5133318 C17.6746869,30.7261355 17.6495,30.9250607 17.6124907,31.1152477 L26.0130981,31.1152477 L27.245715,19.2825374 C27.3886121,17.3570234 25.9483318,15.6802944 23.9590794,15.6802944" mask="url(#reistijdillustratie-f)"/>
      <polygon fill="#FFB70A" points="25.8 16.212 25.182 18.035 22.328 16.506 22.887 13.262 26.292 13.262" mask="url(#reistijdillustratie-f)"/>
      <path fill="#FFB70A" d="M25.223514,15.0036402 L25.223514,15.0036402 C22.3686542,15.0036402 20.0545421,12.689528 20.0545421,9.83466822 L20.0545421,5.79807944 C20.0545421,2.94321963 22.3686542,0.629107477 25.223514,0.629107477 C28.0783738,0.629107477 30.393,2.94321963 30.393,5.79807944 L30.393,9.83466822 C30.393,12.689528 28.0783738,15.0036402 25.223514,15.0036402" mask="url(#reistijdillustratie-f)"/>
      <path fill="#FFF" d="M29.0691449,9.57457477 C28.906715,10.3553692 28.2205,10.9459766 27.3919019,10.9392944 C26.5638178,10.9392944 25.8776028,10.3486869 25.7151729,9.57457477 L29.0691449,9.57457477 Z" mask="url(#reistijdillustratie-f)"/>
      <path fill="#F97D00" d="M21.9315841,7.4251028 L21.9315841,3.33865421 C21.9315841,2.92384112 21.6684065,2.57328037 21.3013972,2.4365514 C20.526257,3.34071028 20.0549019,4.51318692 20.0549019,5.79771963 L20.0549019,9.30178505 L20.0554159,9.30178505 C21.0911636,9.30178505 21.9315841,8.46136449 21.9315841,7.4251028" mask="url(#reistijdillustratie-f)"/>
      <path fill="#F97D00" d="M28.3005841,-5.14018692e-05 L28.3005841,-5.14018692e-05 C27.8112383,-5.14018692e-05 27.3481075,0.165462617 26.9173598,0.397285047 C26.676285,0.526817757 26.2846028,0.629107477 25.5027804,0.629107477 C23.3778271,0.629107477 22.5255841,1.38831308 21.836285,1.89924766 L21.836285,3.64793925 C21.836285,4.51508879 22.5389486,5.21775234 23.4066121,5.21775234 L28.3771729,5.21775234 C29.4375935,5.21775234 30.2975467,4.35831308 30.2975467,3.29789252 L30.2975467,1.92803271 C30.2975467,0.824948598 29.6627336,-5.14018692e-05 28.3005841,-5.14018692e-05" mask="url(#reistijdillustratie-f)"/>
      <path fill="#F97D00" d="M21.0626869,2.74074766 C21.1798832,2.99570093 21.4363785,3.17303738 21.7350234,3.17303738 C22.1441822,3.17303738 22.4762383,2.84149533 22.4762383,2.43182243 C22.4762383,2.1228972 22.2875935,1.85869159 22.0187617,1.74714953 C21.6568925,2.03397196 21.3366589,2.36859813 21.0626869,2.74074766" mask="url(#reistijdillustratie-f)"/>
      <path fill="#53241B" d="M24.206528,15.5934766 C24.206528,15.5934766 24.4177897,17.4023084 24.2214346,20.6267477 C23.8426028,26.8540841 22.3478364,33.0773084 22.3478364,33.0773084 L14.0397523,33.0773084 L16.5620421,26.907028 L18.0917617,19.6264673 C19.0097991,14.4965607 24.206528,15.5934766 24.206528,15.5934766" mask="url(#reistijdillustratie-f)"/>
      <polygon fill="#53241B" points="20.912 34.342 27.153 34.342 27.153 32.525 20.912 32.525" mask="url(#reistijdillustratie-f)"/>
      <path fill="#6DCBF7" d="M10.3982897 49.7915C10.2332897 49.7915 10.0785701 49.6866402 10.0235701 49.5206121L5.04170093 34.4968738C4.97230841 34.2897243 5.0848785 34.0666402 5.29202804 33.9972477 5.49557944 33.9293972 5.72174766 34.0409393 5.79114019 34.2480888L10.7730093 49.2723411C10.8418879 49.4794907 10.7298318 49.7025748 10.5221682 49.7714533 10.4815607 49.7848178 10.4399252 49.7915 10.3982897 49.7915M11.468014 49.5563364C11.2500701 49.5563364 11.0727336 49.379514 11.0727336 49.1610561L11.0727336 34.4087196C11.0727336 34.1902617 11.2500701 34.0134393 11.468014 34.0134393 11.6859579 34.0134393 11.8627804 34.1902617 11.8627804 34.4087196L11.8627804 49.1610561C11.8627804 49.379514 11.6859579 49.5563364 11.468014 49.5563364" mask="url(#reistijdillustratie-f)"/>
      <path fill="#F97D00" d="M25.4564159,54.3880607 L11.2556215,52.2800701 C10.2424907,52.1592757 9.48020093,51.3003505 9.48020093,50.2800234 C9.48020093,49.1676869 10.3817897,48.2660981 11.4941262,48.2660981 L25.8203411,48.2660981 C27.5166028,48.2660981 28.8921168,49.6416121 28.8921168,51.3378738 C28.8921168,53.1785748 27.2842664,54.6060047 25.4564159,54.3880607" mask="url(#reistijdillustratie-f)"/>
      <path fill="#53241B" d="M16.5805981,29.9952523 L16.357514,31.8739907 C16.1848037,33.3332897 16.5934486,34.8018411 17.4960654,35.9614673 L22.8968598,42.6406262 L21.6210654,54.2245514 L23.7434486,54.5401589 L25.9023271,42.2139907 C26.0174673,41.5724953 25.9213458,40.9104393 25.6283551,40.3285701 L21.3558318,31.8524019 L16.5805981,29.9952523 Z" mask="url(#reistijdillustratie-f)"/>
      <path fill="#6DCBF7" d="M38.9223178,30.6588505 L34.9869907,30.6588505 C34.1147009,30.6588505 33.4053551,29.9495047 33.4053551,29.0767009 L33.4053551,28.4074486 C33.4053551,28.1273084 33.1771308,27.8995981 32.8969907,27.8995981 L30.9992336,27.8995981 L30.9992336,26.8252991 L32.8969907,26.8252991 C33.7692804,26.8252991 34.4786262,27.5351589 34.4786262,28.4074486 L34.4786262,29.0767009 C34.4786262,29.3568411 34.7068505,29.5845514 34.9869907,29.5845514 L38.9223178,29.5845514 C39.2219907,29.5845514 39.4661495,29.3403925 39.4661495,29.0407196 L39.4661495,28.3334299 C39.4661495,28.033243 39.2219907,27.7890841 38.9223178,27.7890841 L37.9796075,27.7890841 L37.9796075,26.714785 L38.9223178,26.714785 C39.8136262,26.714785 40.5394206,27.4410935 40.5394206,28.3334299 L40.5394206,29.0407196 C40.5394206,29.9325421 39.8136262,30.6588505 38.9223178,30.6588505" mask="url(#reistijdillustratie-f)"/>
      <path fill="#FFB70A" d="M38.0498738 25.8989346C37.7106215 25.8989346 37.4037523 26.0253832 37.1616495 26.2268785L36.6980047 27.6121589C36.8429579 28.2264112 37.3919299 28.6844019 38.0498738 28.6844019 38.8193598 28.6844019 39.4428645 28.0608972 39.4428645 27.2914112 39.4428645 26.5224393 38.8193598 25.8989346 38.0498738 25.8989346M32.9423271 27.3797196C32.9423271 28.1492056 32.3188224 28.7727103 31.5493364 28.7727103 30.7803645 28.7727103 30.1568598 28.1492056 30.1568598 27.3797196 30.1568598 26.6102336 30.7803645 25.987243 31.5493364 25.987243 32.3188224 25.987243 32.9423271 26.6102336 32.9423271 27.3797196" mask="url(#reistijdillustratie-f)"/>
      <path fill="#694039" d="M19.4021495,19.7768692 L23.2953271,26.6924766 L29.9899065,28.0068224 L30.7511682,25.7322897 L25.0861682,24.0591589 L22.2277103,18.3468692 C21.7666355,17.3676636 20.4815888,17.1291589 19.6992523,17.8770561 C19.1831776,18.371028 19.0613551,19.1492523 19.4021495,19.7768692" mask="url(#reistijdillustratie-f)"/>
    </g>
  </g>
</svg>
